<svg width="1800" height="560" viewBox="0 0 1800 560" fill="none" xmlns="http://www.w3.org/2000/svg">
  <defs>
    <linearGradient id="bg" x1="30" y1="20" x2="520" y2="540" gradientUnits="userSpaceOnUse">
      <stop offset="0" stop-color="#282A38"/>
      <stop offset="1" stop-color="#11131B"/>
    </linearGradient>
    <linearGradient id="bookmark" x1="135" y1="78" x2="380" y2="380" gradientUnits="userSpaceOnUse">
      <stop offset="0" stop-color="#3EF0D2"/>
      <stop offset="0.42" stop-color="#657CFF"/>
      <stop offset="1" stop-color="#FF4F7A"/>
    </linearGradient>
    <linearGradient id="dock" x1="96" y1="350" x2="420" y2="450" gradientUnits="userSpaceOnUse">
      <stop offset="0" stop-color="#FF6B7A"/>
      <stop offset="1" stop-color="#FF3D68"/>
    </linearGradient>
  </defs>

  <rect x="48" y="48" width="464" height="464" rx="106" fill="url(#bg)"/>

  <path d="M194 122C194 109.8 203.8 100 216 100H344C356.2 100 366 109.8 366 122V359C366 378.3 342.9 388.2 329 374.8L289.2 336.4C284.1 331.5 275.9 331.5 270.8 336.4L231 374.8C217.1 388.2 194 378.3 194 359V122Z" fill="url(#bookmark)"/>
  <rect x="224" y="154" width="112" height="30" rx="12" fill="white" fill-opacity="0.9"/>
  <rect x="224" y="210" width="42" height="42" rx="14" fill="white" fill-opacity="0.9"/>
  <rect x="294" y="210" width="42" height="42" rx="14" fill="white" fill-opacity="0.9"/>
  <rect x="224" y="280" width="112" height="30" rx="12" fill="white" fill-opacity="0.9"/>

  <rect x="124" y="366" width="312" height="86" rx="32" fill="#181A23"/>
  <rect x="166" y="386" width="228" height="46" rx="18" fill="url(#dock)"/>
  <circle cx="214" cy="409" r="10" fill="white" fill-opacity="0.95"/>
  <circle cx="280" cy="409" r="10" fill="white" fill-opacity="0.95"/>
  <circle cx="346" cy="409" r="10" fill="white" fill-opacity="0.95"/>

  <text x="590" y="278" font-family="Inter, Arial, Helvetica, sans-serif" font-size="142" font-weight="800" letter-spacing="-6" fill="#F4F5FA">Dock<tspan fill="#FF4F7A">Mark</tspan></text>
  <text x="598" y="356" font-family="Inter, Arial, Helvetica, sans-serif" font-size="42" font-weight="600" letter-spacing="1.5" fill="#9EA3B5">TU DOCK DE MARCADORES</text>
</svg>
